<svg xmlns="http://www.w3.org/2000/svg" xmlns:xlink="http://www.w3.org/1999/xlink" width="100" height="100" viewBox="0 0 100 100">
  <defs>
    <clipPath id="clip-actitud_profesional">
      <rect width="100" height="100"/>
    </clipPath>
  </defs>
  <g id="actitud_profesional" clip-path="url(#clip-actitud_profesional)">
    <g id="Group_255" data-name="Group 255" transform="translate(2160 -4129.796)">
      <path id="Path_444" data-name="Path 444" d="M66.882,15.6c.022-2.231-1.2-3.436-3.439-3.439q-6.84,0-13.679,0H48.649c0-3.014.005-5.881,0-8.748A3.08,3.08,0,0,0,45.275,0Q33.423,0,21.569.007a3.066,3.066,0,0,0-3.322,3.358c-.008,2.6,0,5.2,0,7.8v1c-5.088,0-10.016-.008-14.946,0A3.055,3.055,0,0,0,.008,15.448C-.005,17.271,0,19.1.005,20.921A9.13,9.13,0,0,0,9.528,30.4q6.888.012,13.779,0c.322,0,.647-.03,1.018-.046,0-.969-.005-1.844,0-2.718a3.057,3.057,0,0,1,3.265-3.311q5.877-.016,11.754,0a3.049,3.049,0,0,1,3.217,3.255c.011.9,0,1.809,0,2.8,5.358,0,10.56.087,15.756-.027a8.725,8.725,0,0,0,8.337-7.381,59.709,59.709,0,0,0,.222-7.376M42.494,12.121H24.383V6.164H42.494Z" transform="translate(-2160 4134.796)" fill="#0b3c6d"/>
      <path id="Path_445" data-name="Path 445" d="M245.84,176.451a2.531,2.531,0,0,0-.349-.027,2.169,2.169,0,0,1,.349.027" transform="translate(-2339.02 4006.142)" fill="#0b3c6d"/>
      <path id="Path_446" data-name="Path 446" d="M66.9,123.459v9.174c-.141-.011-.279-.014-.42-.014a7.465,7.465,0,0,0-2.326.371l-30.4,9.967a7.466,7.466,0,0,0-5.142,7.037,7.172,7.172,0,0,0,.041.839c-11.684,0-22.311,0-25.493-.008A2.986,2.986,0,0,1,.029,147.8c-.022-8-.008-16.005,0-24.009a1.789,1.789,0,0,1,.106-.338c3.363,2.553,7.135,3.176,11.156,3.081,4.522-.106,9.046-.024,13.587-.024a9.2,9.2,0,0,0,5.773,5.627,8.941,8.941,0,0,0,10.953-4.73,1.378,1.378,0,0,1,1.516-.912c4.625.032,9.252-.022,13.877.03a15.676,15.676,0,0,0,9.439-2.794c.1-.073.217-.127.471-.271" transform="translate(-2160.012 4044.77)" fill="#0b3c6d"/>
      <path id="Path_447" data-name="Path 447" d="M112.278,112.439h6.043a33.523,33.523,0,0,1-.023,3.434,3,3,0,0,1-3.105,2.6,3.045,3.045,0,0,1-2.9-2.834c-.059-1.035-.011-2.076-.011-3.2" transform="translate(-2241.864 4052.802)" fill="#0b3c6d"/>
      <path id="Path_448" data-name="Path 448" d="M189.432,190.777,158.4,201.424a2.318,2.318,0,0,1-.742.125,2.281,2.281,0,0,1-.747-.127L126.3,190.842a2.224,2.224,0,0,1-1.408-1.381,2.28,2.28,0,0,1,1.443-2.957l30.4-9.967a2.278,2.278,0,0,1,.712-.114,2.53,2.53,0,0,1,.349.027c.022.005.043.008.068.014a1.873,1.873,0,0,1,.276.068l31.238,9.9a2.288,2.288,0,0,1,.051,4.346" transform="translate(-2250.978 4006.142)" fill="#0b3c6d"/>
      <path id="Path_449" data-name="Path 449" d="M245.84,176.451a2.531,2.531,0,0,0-.349-.027,2.169,2.169,0,0,1,.349.027" transform="translate(-2339.02 4006.142)" fill="#0b3c6d"/>
      <path id="Path_450" data-name="Path 450" d="M245.491,176.424a2.531,2.531,0,0,1,.349.027,2.169,2.169,0,0,0-.349-.027" transform="translate(-2339.02 4006.142)" fill="#0b3c6d"/>
      <path id="Path_451" data-name="Path 451" d="M208.655,262.159v13.472a42.012,42.012,0,0,1-43.535,0V261.963l21.227,7.336a2.306,2.306,0,0,0,1.492,0Z" transform="translate(-2280.411 3943.764)" fill="#0b3c6d"/>
      <path id="Path_452" data-name="Path 452" d="M351.662,247.017v9.094a2.947,2.947,0,0,1-5.894,0v-6.7l4.832-1.658a2.249,2.249,0,0,0,1.062-.739" transform="translate(-2412.146 3954.663)" fill="#0b3c6d"/>
    </g>
  </g>
</svg>
