<svg xmlns="http://www.w3.org/2000/svg" xmlns:xlink="http://www.w3.org/1999/xlink" width="100" height="100" viewBox="0 0 100 100">
  <defs>
    <clipPath id="clip-path">
      <rect id="Rectangle_138" data-name="Rectangle 138" width="100" height="97.073" fill="#004e9c"/>
    </clipPath>
    <clipPath id="clip-beneficios">
      <rect width="100" height="100"/>
    </clipPath>
  </defs>
  <g id="beneficios" clip-path="url(#clip-beneficios)">
    <g id="Group_199" data-name="Group 199" transform="translate(0 1)" clip-path="url(#clip-path)">
      <path id="Path_441" data-name="Path 441" d="M0,157.4c.413.024.826.068,1.239.068q11.225.006,22.45,0h1.295v53.163a6.446,6.446,0,0,1-.775.09q-11.8.008-23.593,0A5.385,5.385,0,0,1,0,210.655V157.4" transform="translate(0 -113.655)" fill="#004e9c"/>
      <path id="Path_442" data-name="Path 442" d="M89.9,115.143c2.4,0,4.754.077,7.1-.027a17.728,17.728,0,0,0,4.6-.651,12.386,12.386,0,0,0,8.644-11.957c.034-3.744.007-7.488.008-11.232v-1.2a12.563,12.563,0,0,1,12.51,12.5c.042,3.08.009,6.162.009,9.421h1.25q9.308,0,18.616,0a6.277,6.277,0,0,1,2.918,12.017,6.17,6.17,0,0,0-.976.479c1.969-.017,3.906.061,5.514,1.39a6.269,6.269,0,0,1-.184,9.973c-1.594,1.21-3.45,1.285-5.363,1.285a6.865,6.865,0,0,1,3.825,2.851,6.216,6.216,0,0,1,.827,4.687c-.666,3.239-3.065,4.778-7.927,4.942.465.2.756.322,1.049.444a6.266,6.266,0,0,1,3.767,7.012,6.046,6.046,0,0,1-5.841,5c-8.666.043-17.335.109-26-.113-2.39-.061-4.793-.976-7.123-1.713-3.589-1.135-7.078-2.6-10.691-3.638a45.228,45.228,0,0,0-6.528-.918Z" transform="translate(-64.912 -65.041)" fill="#004e9c"/>
      <path id="Path_443" data-name="Path 443" d="M246.259,0l3,5.439c.887,1.606,1.74,3.233,2.684,4.8a1.96,1.96,0,0,0,1.147.83c3.593.74,7.2,1.413,10.8,2.109.164.032.323.093.656.19-.31.355-.536.63-.778.89-2.3,2.455-4.571,4.932-6.913,7.344a2.25,2.25,0,0,0-.675,2.114c.491,3.5.909,7.006,1.35,10.511.021.167,0,.339,0,.674l-1.834-.857c-2.915-1.365-5.82-2.751-8.755-4.07a1.92,1.92,0,0,0-1.409.01c-3.216,1.454-6.4,2.971-9.6,4.466-.3.141-.609.27-1.046.462.392-3.153.727-6.142,1.144-9.12.453-3.241.485-3.235-1.753-5.617-2.085-2.219-4.166-4.442-6.4-6.822,1.127-.226,2.085-.423,3.044-.609,2.786-.541,5.567-1.111,8.364-1.59a1.778,1.778,0,0,0,1.387-1.055c1.656-3.04,3.334-6.068,5.006-9.1.166-.3.339-.6.572-1" transform="translate(-164.553)" fill="#004e9c"/>
    </g>
  </g>
</svg>
