<svg xmlns="http://www.w3.org/2000/svg" xmlns:xlink="http://www.w3.org/1999/xlink" width="100" height="100" viewBox="0 0 100 100">
  <defs>
    <clipPath id="clip-path">
      <rect id="Rectangle_136" data-name="Rectangle 136" width="85.902" height="100" fill="#004e9c"/>
    </clipPath>
    <clipPath id="clip-costo">
      <rect width="100" height="100"/>
    </clipPath>
  </defs>
  <g id="costo" clip-path="url(#clip-costo)">
    <g id="Group_198" data-name="Group 198" transform="translate(7)">
      <g id="Group_191" data-name="Group 191" clip-path="url(#clip-path)">
        <path id="Path_437" data-name="Path 437" d="M26.249,43.346c2.083,0,2.146-.06,2.145-2.144,0-.064,0-.128,0-.192-.01-1.813,0-1.791,1.689-2.444A7.425,7.425,0,0,0,31.5,25.13a29.37,29.37,0,0,0-3.17-1.571c-1.007-.481-2.057-.884-3.027-1.429-1.192-.669-1.652-1.554-1.451-2.461a2.461,2.461,0,0,1,2.394-1.73,10.344,10.344,0,0,1,5.411.937c1.029.464,1.224.366,1.579-.728.256-.79.492-1.586.722-2.383a1.083,1.083,0,0,0-.759-1.51,35.278,35.278,0,0,0-3.5-.974c-.821-.161-1.194-.5-1.112-1.332a6.551,6.551,0,0,0-.007-.767c-.029-1.54-.168-1.691-1.717-1.711-2.922-.039-2.522.033-2.506,2.374.007,1.024-.259,1.709-1.344,1.98a6.475,6.475,0,0,0-1.565.712,6.779,6.779,0,0,0-.826,11.511,35.031,35.031,0,0,0,4.912,2.536,16.885,16.885,0,0,1,2.6,1.406,2.3,2.3,0,0,1-.556,4.137,5.027,5.027,0,0,1-2.6.412,37.127,37.127,0,0,1-5.136-1.406c-.757-.253-1.151-.161-1.365.6-.251.891-.511,1.78-.759,2.672a1.134,1.134,0,0,0,.727,1.547,28.477,28.477,0,0,0,3.356,1.1c2.273.509,2.176-.061,2.2,2.739.011,1.327.233,1.542,1.573,1.553.224,0,.448,0,.672,0M52.809,26.4A26.4,26.4,0,1,1,26.4,0a26.4,26.4,0,0,1,26.4,26.4" fill="#004e9c"/>
        <path id="Path_438" data-name="Path 438" d="M100.825,122.814a3.82,3.82,0,0,0-3.682-3.718c-.8-.044-1.6-.046-2.4-.011a.843.843,0,0,1-.976-.665,32.042,32.042,0,0,0-9.75-13.885c-.256-.221-.605-.507-.632-.788a17.787,17.787,0,0,1-.229-4.636,20.193,20.193,0,0,1,1.78-4.808,2.655,2.655,0,0,0,.076-2.8,2.358,2.358,0,0,0-2.611-.976c-.725.128-1.458.218-2.164.417a16.608,16.608,0,0,0-6.9,3.513A32.044,32.044,0,0,1,22.4,118.036a27.584,27.584,0,0,0-1.573,13.552,35.337,35.337,0,0,0,9.142,19.181,18.88,18.88,0,0,1,5.1,12.683,2.137,2.137,0,0,0,2.407,2.347q6.194.016,12.383,0a2.136,2.136,0,0,0,2.385-2.366c.014-.951,0-1.9,0-2.75h10.32c0,1.033-.025,2.02.008,3a2.02,2.02,0,0,0,2.05,2.1q6.525.049,13.054.005a2.023,2.023,0,0,0,2.08-1.973,17.507,17.507,0,0,0,.035-2.205,12.415,12.415,0,0,1,4.465-10.088A33.289,33.289,0,0,0,94.052,137.2a1.088,1.088,0,0,1,.785-.559c.76-.082,1.535,0,2.3-.041a3.8,3.8,0,0,0,3.688-3.707q.082-5.037,0-10.08m-20.149-3.077a3.195,3.195,0,1,1,3.23-3.2,3.173,3.173,0,0,1-3.23,3.2" transform="translate(-14.965 -65.808)" fill="#004e9c"/>
      </g>
    </g>
  </g>
</svg>
