<svg xmlns="http://www.w3.org/2000/svg" xmlns:xlink="http://www.w3.org/1999/xlink" width="100" height="100" viewBox="0 0 100 100">
  <defs>
    <clipPath id="clip-path">
      <rect id="Rectangle_137" data-name="Rectangle 137" width="99.793" height="100" fill="#004e9c"/>
    </clipPath>
    <clipPath id="clip-fechas">
      <rect width="100" height="100"/>
    </clipPath>
  </defs>
  <g id="fechas" clip-path="url(#clip-fechas)">
    <g id="Group_254" data-name="Group 254" transform="translate(2430 -4030)">
      <g id="Group_195" data-name="Group 195" transform="translate(-2430 4030)">
        <g id="Group_194" data-name="Group 194" clip-path="url(#clip-path)">
          <path id="Path_439" data-name="Path 439" d="M78.752,0H80.9c.206.082.408.177.619.244a4.525,4.525,0,0,1,3.262,4.176c.066,1.234.032,2.473.04,3.71,0,.6,0,1.2,0,1.853,1.492,0,2.828.077,4.152-.015a5.591,5.591,0,0,1,5.872,5.827c-.125,7.322-.038,14.647-.04,21.972,0,.338-.03.676-.047,1.024C79.306,27.9,63.479,26.648,47.471,37.031c-8.683,5.632-14.1,13.892-16.477,24.016-2.385,10.168-.666,19.788,4.368,28.889a2.783,2.783,0,0,1-.353.072c-9.974,0-19.948.036-29.921-.039a7.174,7.174,0,0,1-3.07-1.031C.869,88.331.445,87.1,0,85.937V14.062C.976,11,3.156,9.833,6.257,9.966c2.108.09,4.222.017,6.333.017h2.418c0-1.869-.039-3.62.011-5.368A4.414,4.414,0,0,1,17.314.679,14.307,14.307,0,0,1,18.908,0h2.144c3.064.9,4.085,3.1,3.911,6.106-.073,1.256-.012,2.519-.012,3.827H74.858c0-1.7-.031-3.35.008-5A4.657,4.657,0,0,1,77.687.422C78.035.266,78.4.14,78.752,0" fill="#004e9c"/>
          <path id="Path_440" data-name="Path 440" d="M195.461,223.917h-3.7c-.252-.051-.5-.1-.757-.151a56.174,56.174,0,0,1-6.376-1.272,29.968,29.968,0,0,1,5.5-58.34,29.948,29.948,0,0,1,11.435,58.607c-1.99.542-4.063.779-6.1,1.156m3.119-34.972c0-.443,0-.733,0-1.022-.006-3.124.058-6.251-.04-9.373a4.954,4.954,0,0,0-9.892.084q-.087,7.762,0,15.524a4.5,4.5,0,0,0,4.57,4.716c3.571.091,7.146.052,10.718.009a4.354,4.354,0,0,0,3.5-1.657,5.233,5.233,0,0,0,.664-5.525,4.394,4.394,0,0,0-4.334-2.749c-1.682-.032-3.366-.007-5.179-.007" transform="translate(-123.726 -123.917)" fill="#004e9c"/>
        </g>
      </g>
    </g>
  </g>
</svg>
