<svg xmlns="http://www.w3.org/2000/svg" xmlns:xlink="http://www.w3.org/1999/xlink" width="100" height="100" viewBox="0 0 100 100">
  <defs>
    <clipPath id="clip-pregunta">
      <rect width="100" height="100"/>
    </clipPath>
  </defs>
  <g id="pregunta" clip-path="url(#clip-pregunta)">
    <g id="Group_257" data-name="Group 257" transform="translate(1182 -4133.96)">
      <path id="Path_460" data-name="Path 460" d="M246.091,28.31c-.266,1.463-.416,2.959-.817,4.384-2.961,10.522-9.79,17.084-20.447,19.477a24.543,24.543,0,0,1-15.63-1.717,3.816,3.816,0,0,0-2.706-.22c-3.138.834-6.292,1.612-9.452,2.364a2.843,2.843,0,0,1-3.58-2.275,4.346,4.346,0,0,1,.231-1.9c.888-2.784,1.863-5.541,2.732-8.332a2.363,2.363,0,0,0-.124-1.616A26.336,26.336,0,1,1,244.391,17.24a56.748,56.748,0,0,1,1.532,6.324c.066.278.113.56.169.841ZM228.506,21a8.783,8.783,0,1,0-17.552-.615,2.923,2.923,0,0,0,5.815.53c.042-.256.026-.521.064-.777a2.95,2.95,0,0,1,2.876-2.555,2.913,2.913,0,0,1,2.9,2.412c.244,1.566-.585,2.553-1.856,3.334a8.162,8.162,0,0,0-3.929,7.194,2.909,2.909,0,0,0,5.81.291,3.492,3.492,0,0,1,1.854-2.97A8.385,8.385,0,0,0,228.506,21m-5.853,17.049a2.921,2.921,0,1,0-2.894,2.949,2.948,2.948,0,0,0,2.894-2.949" transform="translate(-1328.091 4133.96)" fill="#004e9c"/>
      <path id="Path_461" data-name="Path 461" d="M2.177,295.669C.488,294.89-.046,293.551,0,291.735c.093-3.445.052-6.894.022-10.341A26.349,26.349,0,0,1,8.586,261.3c.8-.758,1.7-1.406,2.614-2.157a20.764,20.764,0,0,0,30.849-.1,62.809,62.809,0,0,1,4.564,4.359A26.118,26.118,0,0,1,53.145,281.3c-.038,3.479-.072,6.961.02,10.438.048,1.816-.485,3.155-2.175,3.934Z" transform="translate(-1182 3938.26)" fill="#004e9c"/>
      <path id="Path_462" data-name="Path 462" d="M62.88,173.006a14.642,14.642,0,1,1,14.834-14.619A14.857,14.857,0,0,1,62.88,173.006" transform="translate(-1218.293 4025.384)" fill="#004e9c"/>
    </g>
  </g>
</svg>
