<svg xmlns="http://www.w3.org/2000/svg" xmlns:xlink="http://www.w3.org/1999/xlink" width="100" height="100" viewBox="0 0 100 100">
  <defs>
    <clipPath id="clip-publico">
      <rect width="100" height="100"/>
    </clipPath>
  </defs>
  <g id="publico" clip-path="url(#clip-publico)">
    <g id="Group_253" data-name="Group 253" transform="translate(2107.228 -4013.604)">
      <path id="Path_453" data-name="Path 453" d="M0,120.664c.2-.814.34-1.644.594-2.44A15.253,15.253,0,0,1,13,107.174c.277-.054.551-.124,1-.226C6.019,105.5,2.6,98.886,3.192,93.469a12.346,12.346,0,0,1,24.518-.552c.814,6.364-3.148,12.553-10.488,13.994,2.823,0,5.494.067,8.158-.027a6.25,6.25,0,0,0,3.8-1.818c3.989-3.443,8-6.856,12-10.3a3.349,3.349,0,0,1,3.862-.714,3.451,3.451,0,0,1,2.032,3.474c-.02,3.481-.03,6.963.006,10.444a4.045,4.045,0,0,1-1.512,3.324c-4.63,3.945-9.232,7.924-13.875,11.854a1.929,1.929,0,0,0-.737,1.665q.029,12.542.012,25.085c0,2.679-1.048,3.732-3.709,3.732-7.841,0-15.682-.025-23.523.019-1.807.01-3.088-.589-3.732-2.327V120.664" transform="translate(-2107.228 3953.687)" fill="#0b3c6d"/>
      <path id="Path_454" data-name="Path 454" d="M300.116,106.991a12.612,12.612,0,0,1-10.31-14.164,12.352,12.352,0,0,1,24.537.956c.471,6.385-4.042,11.95-10.9,13.144.487.125.728.209.975.248A15.4,15.4,0,0,1,317.488,122.3c.042,9.372.015,18.744.009,28.116a2.971,2.971,0,0,1-3.223,3.228q-12.252.018-24.5,0c-2.091,0-3.23-1.221-3.232-3.422q-.011-12.691.012-25.383a2.029,2.029,0,0,0-.805-1.733c-4.641-3.933-9.247-7.91-13.875-11.859a3.873,3.873,0,0,1-1.445-3.155q.04-5.272,0-10.544a3.457,3.457,0,0,1,2.028-3.477,3.35,3.35,0,0,1,3.865.708c3.97,3.418,7.972,6.8,11.921,10.239A7.55,7.55,0,0,0,293.578,107c2.178-.048,4.358-.011,6.537-.011" transform="translate(-2324.738 3953.675)" fill="#0b3c6d"/>
      <path id="Path_455" data-name="Path 455" d="M240.516,9.181c0-2.014-.01-4.028,0-6.042a2.935,2.935,0,1,1,5.852.037q.016,6.042,0,12.083a2.934,2.934,0,1,1-5.852-.037c-.011-2.014,0-4.028,0-6.042" transform="translate(-2300.679 4019.868)" fill="#0b3c6d"/>
      <path id="Path_456" data-name="Path 456" d="M316.8,51.42a6.633,6.633,0,0,1-.963,1.706c-1.992,2.1-4.057,4.128-6.126,6.152a2.938,2.938,0,0,1-4.2.035,2.909,2.909,0,0,1,.111-4.2q3.047-3.092,6.14-6.139a2.819,2.819,0,0,1,3.314-.638c1.114.513,1.655,1.411,1.725,3.081" transform="translate(-2352.28 3981.216)" fill="#0b3c6d"/>
      <path id="Path_457" data-name="Path 457" d="M153.463,60.379a8.864,8.864,0,0,1-1.973-1.1c-2.119-2.018-4.175-4.1-6.221-6.2a2.933,2.933,0,0,1-.048-4.13,2.894,2.894,0,0,1,4.195.032q3.137,3.072,6.21,6.208a2.8,2.8,0,0,1,.632,3.235,3.338,3.338,0,0,1-2.794,1.948" transform="translate(-2223.368 3981.202)" fill="#0b3c6d"/>
    </g>
  </g>
</svg>
