<svg xmlns="http://www.w3.org/2000/svg" xmlns:xlink="http://www.w3.org/1999/xlink" width="100" height="100" viewBox="0 0 100 100">
  <defs>
    <clipPath id="clip-ubicacion">
      <rect width="100" height="100"/>
    </clipPath>
  </defs>
  <g id="ubicacion" clip-path="url(#clip-ubicacion)">
    <g id="Group_256" data-name="Group 256" transform="translate(1508 -4134.796)">
      <path id="Path_458" data-name="Path 458" d="M81.358,85.051c-10.476-14.382-20.427-28.5-27.528-44.5C45.272,21.264,61.166-1.078,83.041.04c15.575.8,28.651,14.388,28.176,29.987a34.4,34.4,0,0,1-2.87,11.422C103.762,52.845,96.952,63.007,90,73.055c-2.728,3.941-5.6,7.783-8.639,12m-.1-45.128a9.979,9.979,0,0,0,10.082-9.941,9.986,9.986,0,1,0-19.971,0,9.984,9.984,0,0,0,9.889,9.942" transform="translate(-1539.399 4134.796)" fill="#0b3c6d"/>
      <path id="Path_459" data-name="Path 459" d="M18.416,141.077l4.912,8.9a25.2,25.2,0,0,0-2.5,1.228c-2.9,1.822-5.993,3.426-8.58,5.624-3.124,2.654-3.1,5.623.022,8.317a34.323,34.323,0,0,0,7.948,5.152c8.626,3.976,17.849,5.378,27.281,5.6,10.751.25,21.318-.858,31.26-5.206a37.5,37.5,0,0,0,8.975-5.674c3.053-2.572,3.024-5.635-.083-8.145-2.733-2.209-6.014-3.745-9.074-5.543a15.156,15.156,0,0,0-2.007-.822l4.935-8.969c6.747,2.829,13.062,6.177,16.722,12.91,3.132,5.76,1.883,12.577-3.093,17.715-4.749,4.9-10.728,7.741-17.147,9.6-19.389,5.626-38.784,6-58.073-.5a38.141,38.141,0,0,1-13.762-7.893c-8.113-7.42-8.217-16.9-.253-24.441a41.618,41.618,0,0,1,12.513-7.847" transform="translate(-1508 4048.739)" fill="#0b3c6d"/>
    </g>
  </g>
</svg>
