<?xml version="1.0" encoding="utf-8"?>
<!-- Generator: Adobe Illustrator 27.4.1, SVG Export Plug-In . SVG Version: 6.00 Build 0)  -->
<svg version="1.1" id="Layer_1" xmlns="http://www.w3.org/2000/svg" xmlns:xlink="http://www.w3.org/1999/xlink" x="0px" y="0px"
	 viewBox="0 0 26 26" style="enable-background:new 0 0 26 26;" xml:space="preserve">
<style type="text/css">
	.st0{fill:#637185;}
</style>
<g>
	<path class="st0" d="M14.6,13.3c-0.1-0.1-0.1-0.2-0.1-0.2c0-0.1,0-0.2,0.1-0.2l4.9-4.9C20,7.4,20,6.5,19.5,6v0
		c-0.3-0.3-0.6-0.4-1-0.4c-0.4,0-0.7,0.1-1,0.4l-6,6.1c-0.5,0.5-0.5,1.4,0,1.9l6,6c0.3,0.3,0.6,0.4,1,0.4s0.7-0.1,1-0.4
		c0.3-0.3,0.4-0.6,0.4-1s-0.1-0.7-0.4-1L14.6,13.3z M19.2,6.4L19.2,6.4L19.2,6.4L19.2,6.4z"/>
	<path class="st0" d="M6.4,13.3c-0.1-0.1-0.1-0.2-0.1-0.2s0-0.2,0.1-0.2l4.9-4.9c0.5-0.5,0.5-1.4,0-1.9c-0.3-0.3-0.5-0.4-1-0.4
		c-0.4,0-0.7,0.1-1,0.4l-6,6.1c-0.5,0.5-0.5,1.4,0,1.9l6,6c0.3,0.3,0.6,0.4,1,0.4c0.3,0,0.7-0.1,1-0.4c0.3-0.3,0.4-0.6,0.4-1
		c0-0.4-0.1-0.7-0.4-1L6.4,13.3z"/>
</g>
<g>
	<path class="st0" d="M5.1-9l5.9-5.9c0.2-0.2,0.5-0.3,0.8-0.3s0.6,0.1,0.8,0.3c0.5,0.5,0.5,1.2,0,1.7L8.7-9.3H20
		c0.6,0,1.2,0.5,1.2,1.2S20.7-6.9,20-6.9H8.8L12.7-3c0.5,0.5,0.5,1.2,0,1.7s-1.2,0.5-1.7,0L5.1-7.2C4.7-7.8,4.7-8.6,5.1-9z"/>
</g>
</svg>
