<?xml version="1.0" encoding="utf-8"?>
<!-- Generator: Adobe Illustrator 26.3.1, SVG Export Plug-In . SVG Version: 6.00 Build 0)  -->
<svg version="1.1" id="Layer_1" xmlns="http://www.w3.org/2000/svg" xmlns:xlink="http://www.w3.org/1999/xlink" x="0px" y="0px"
	 viewBox="0 0 26 26" style="enable-background:new 0 0 26 26;" xml:space="preserve">
<style type="text/css">
	.st0{fill:#2D3740;}
	.st1{fill:#637185;}
</style>
<g>
	<polygon class="st0" points="6.8,-27 5.7,-25.8 11.8,-19.7 5.7,-13.6 6.8,-12.5 14.1,-19.7 	"/>
	<polygon class="st0" points="13,-27 11.9,-25.8 18,-19.7 11.9,-13.6 13,-12.5 20.3,-19.7 	"/>
</g>
<g>
	<path class="st1" d="M20.9,13.8L15,19.7c-0.2,0.2-0.5,0.3-0.8,0.3c-0.3,0-0.6-0.1-0.8-0.3c-0.5-0.5-0.5-1.2,0-1.7l3.9-3.9H6
		c-0.6,0-1.2-0.5-1.2-1.2s0.5-1.2,1.2-1.2h11.3L13.3,8c-0.5-0.5-0.5-1.2,0-1.7c0.5-0.5,1.2-0.5,1.7,0l5.9,5.9
		C21.3,12.6,21.3,13.4,20.9,13.8z"/>
</g>
</svg>
