<?xml version="1.0" encoding="utf-8"?>
<!-- Generator: Adobe Illustrator 26.3.1, SVG Export Plug-In . SVG Version: 6.00 Build 0)  -->
<svg version="1.1" id="Layer_1" xmlns="http://www.w3.org/2000/svg" xmlns:xlink="http://www.w3.org/1999/xlink" x="0px" y="0px"
	 viewBox="0 0 26 26" style="enable-background:new 0 0 26 26;" xml:space="preserve">
<style type="text/css">
	.st0{fill:#2D3740;}
	.st1{fill:#637185;}
</style>
<g>
	<polygon class="st0" points="19.1,-30.9 20.3,-29.7 14.2,-23.6 20.3,-17.6 19.1,-16.4 11.9,-23.6 	"/>
	<polygon class="st0" points="12.9,-30.9 14.1,-29.7 8,-23.6 14.1,-17.6 12.9,-16.4 5.7,-23.6 	"/>
</g>
<g>
	<path class="st1" d="M5.1,12.2L11,6.3C11.2,6.1,11.5,6,11.8,6c0.3,0,0.6,0.1,0.8,0.3c0.5,0.5,0.5,1.2,0,1.7l-3.9,3.9H20
		c0.6,0,1.2,0.5,1.2,1.2s-0.5,1.2-1.2,1.2H8.8l3.9,3.9c0.5,0.5,0.5,1.2,0,1.7c-0.5,0.5-1.2,0.5-1.7,0l-5.9-5.9
		C4.7,13.4,4.7,12.6,5.1,12.2z"/>
</g>
</svg>
